<svg width="73" height="73" viewBox="0 0 73 73" fill="none" xmlns="http://www.w3.org/2000/svg">
<g clip-path="url(#clip0_1_47)">
<path d="M72.3335 36.1111C72.3335 16.162 56.158 0 36.2224 0C16.2733 0 0.111328 16.162 0.111328 36.1111C0.111328 54.1306 13.3122 69.0715 30.5801 71.7776V46.5517H21.4101V36.1134H30.5801V28.1531C30.5801 19.105 35.9629 14.1082 44.2143 14.1082C48.1662 14.1082 52.3032 14.8123 52.3032 14.8123V23.6979H47.7419C43.2641 23.6979 41.8648 26.4852 41.8648 29.3403V36.1111H51.8789L50.2697 46.5495H41.8648V71.7753C59.1191 69.0693 72.3335 54.1283 72.3335 36.1089V36.1111Z" fill="white"/>
</g>
<defs>
<clipPath id="clip0_1_47">
<rect width="72.2222" height="72.2222" fill="white" transform="translate(0.111328)"/>
</clipPath>
</defs>
</svg>
