<svg width="73" height="73" viewBox="0 0 73 73" fill="none" xmlns="http://www.w3.org/2000/svg">
<g clip-path="url(#clip0_1_49)">
<path d="M36.1111 0C16.1673 0 0 16.1673 0 36.1111C0 56.0549 16.1673 72.2222 36.1111 72.2222C56.0549 72.2222 72.2222 56.0549 72.2222 36.1111C72.2222 16.1673 56.0549 0 36.1111 0Z" fill="white"/>
<g clip-path="url(#clip1_1_49)">
<path d="M54.9616 27.4661C54.8703 25.3939 54.5352 23.9693 54.0551 22.7348C53.5599 21.4244 52.7981 20.2513 51.7999 19.276C50.8246 18.2856 49.6438 17.516 48.3486 17.0285C47.107 16.5485 45.6898 16.2134 43.6176 16.122C41.5299 16.0229 40.8671 16 35.5721 16C30.2772 16 29.6144 16.0229 27.5345 16.1143C25.4622 16.2056 24.0376 16.541 22.8034 17.0208C21.4928 17.516 20.3196 18.2779 19.3444 19.276C18.354 20.2513 17.5847 21.4322 17.0969 22.7274C16.6168 23.9693 16.2817 25.3861 16.1904 27.4584C16.0913 29.5461 16.0684 30.2088 16.0684 35.5038C16.0684 40.7988 16.0913 41.4616 16.1826 43.5415C16.274 45.6137 16.6094 47.0384 17.0894 48.2728C17.5847 49.5832 18.354 50.7563 19.3444 51.7316C20.3196 52.722 21.5005 53.4916 22.7957 53.9791C24.0376 54.4591 25.4545 54.7942 27.527 54.8856C29.6067 54.9773 30.2697 54.9999 35.5647 54.9999C40.8597 54.9999 41.5224 54.9773 43.6024 54.8856C45.6746 54.7942 47.0992 54.4591 48.3334 53.9791C50.9544 52.9658 53.0266 50.8935 54.04 48.2728C54.5197 47.0309 54.8551 45.6137 54.9465 43.5415C55.0378 41.4616 55.0607 40.7988 55.0607 35.5038C55.0607 30.2088 55.053 29.5461 54.9616 27.4661ZM51.4496 43.3891C51.3657 45.2938 51.0458 46.3223 50.7791 47.008C50.1238 48.707 48.7753 50.0555 47.0763 50.7108C46.3906 50.9775 45.3547 51.2974 43.4575 51.381C41.4004 51.4727 40.7835 51.4953 35.5799 51.4953C30.3763 51.4953 29.7516 51.4727 27.702 51.381C25.7973 51.2974 24.7688 50.9775 24.0831 50.7108C23.2376 50.3983 22.468 49.9031 21.8434 49.2555C21.1958 48.6231 20.7006 47.8612 20.3881 47.0157C20.1214 46.3301 19.8015 45.2938 19.7179 43.3969C19.6262 41.3398 19.6036 40.7226 19.6036 35.519C19.6036 30.3154 19.6262 29.6907 19.7179 27.6414C19.8015 25.7367 20.1214 24.7082 20.3881 24.0225C20.7006 23.1767 21.1958 22.4074 21.8511 21.7825C22.4832 21.1349 23.2451 20.6397 24.0909 20.3275C24.7766 20.0608 25.8128 19.7409 27.7097 19.657C29.7668 19.5656 30.384 19.5427 35.5873 19.5427C40.7987 19.5427 41.4156 19.5656 43.4652 19.657C45.3699 19.7409 46.3984 20.0608 47.0841 20.3275C47.9296 20.6397 48.6992 21.1349 49.3238 21.7825C49.9714 22.4149 50.4666 23.1767 50.7791 24.0225C51.0458 24.7082 51.3657 25.7442 51.4496 27.6414C51.541 29.6984 51.5639 30.3154 51.5639 35.519C51.5639 40.7226 51.541 41.3321 51.4496 43.3891Z" fill="#6867AB"/>
<path d="M35.5722 25.4852C30.0413 25.4852 25.5537 29.9725 25.5537 35.5038C25.5537 41.0351 30.0413 45.5224 35.5722 45.5224C41.1035 45.5224 45.5908 41.0351 45.5908 35.5038C45.5908 29.9725 41.1035 25.4852 35.5722 25.4852ZM35.5722 42.0026C31.984 42.0026 29.0735 39.0923 29.0735 35.5038C29.0735 31.9153 31.984 29.005 35.5722 29.005C39.1608 29.005 42.071 31.9153 42.071 35.5038C42.071 39.0923 39.1608 42.0026 35.5722 42.0026Z" fill="#6867AB"/>
<path d="M48.326 25.0891C48.326 26.3807 47.2787 27.428 45.9868 27.428C44.6952 27.428 43.6479 26.3807 43.6479 25.0891C43.6479 23.7972 44.6952 22.7502 45.9868 22.7502C47.2787 22.7502 48.326 23.7972 48.326 25.0891Z" fill="#6867AB"/>
</g>
</g>
<defs>
<clipPath id="clip0_1_49">
<rect width="72.2222" height="72.2222" fill="white"/>
</clipPath>
<clipPath id="clip1_1_49">
<rect width="39" height="39" fill="white" transform="translate(16 16)"/>
</clipPath>
</defs>
</svg>
