<svg width="73" height="73" viewBox="0 0 73 73" fill="none" xmlns="http://www.w3.org/2000/svg">
<path d="M36.3332 2.22229C17.1871 2.22229 1.6665 17.7428 1.6665 36.889C1.6665 56.0351 17.1871 71.5556 36.3332 71.5556C55.4793 71.5556 70.9998 56.0351 70.9998 36.889C70.9998 17.7428 55.4793 2.22229 36.3332 2.22229ZM50.4346 30.6201C50.449 30.9162 50.4526 31.2123 50.4526 31.5012C50.4526 40.529 43.5879 50.9326 31.0284 50.9326C27.3173 50.9387 23.6833 49.8729 20.5634 47.8631C21.0943 47.9281 21.6396 47.9534 22.1921 47.9534C25.3915 47.9534 28.3346 46.8665 30.6709 45.032C29.2471 45.0041 27.8675 44.5326 26.7244 43.6833C25.5813 42.8341 24.7316 41.6493 24.2937 40.2942C25.3162 40.4887 26.3696 40.4479 27.374 40.1751C25.8286 39.8626 24.4389 39.0252 23.4404 37.805C22.442 36.5847 21.8963 35.0567 21.8959 33.4801V33.397C22.8168 33.9062 23.8712 34.2167 24.9907 34.2528C23.5419 33.2884 22.5163 31.8069 22.1236 30.1114C21.7309 28.4158 22.0009 26.6343 22.8782 25.1312C24.5933 27.2401 26.7322 28.9653 29.1563 30.1951C31.5805 31.4249 34.2359 32.1319 36.9507 32.2703C36.6055 30.8053 36.7541 29.2674 37.3732 27.8955C37.9923 26.5236 39.0474 25.3948 40.3743 24.6844C41.7012 23.974 43.2256 23.7218 44.7106 23.9672C46.1955 24.2126 47.5578 24.9417 48.5857 26.0412C50.1138 25.7388 51.5792 25.1783 52.919 24.3837C52.4097 25.9658 51.3434 27.3093 49.9182 28.1645C51.2718 28.0015 52.5935 27.6376 53.8398 27.0848C52.9244 28.4566 51.7712 29.6539 50.4346 30.6201Z" fill="white"/>
</svg>
